<svg id="5bd05fbd9742d9ffc9ab4e454ecfa2e9-style_3_icon_top_xx" xmlns="http://www.w3.org/2000/svg" width="40" height="40" viewBox="0 0 40 40">
  <rect id="5bd05fbd9742d9ffc9ab4e454ecfa2e9-comomn_m_icon___60_60" data-name="comomn / m icon _ 60*60" width="40" height="40" fill="#fff" opacity="0"/>
  <path id="5bd05fbd9742d9ffc9ab4e454ecfa2e9-&#x8def;&#x5f84;_16905" data-name="&#x8def;&#x5f84; 16905" d="M4202.333-170a5.333,5.333,0,0,1-5.333-5.333v-17.334a5.333,5.333,0,0,1,5.333-5.333H4225a5.333,5.333,0,0,1,5.333,5.333v2.95l.043.049-.043.038v14.3A5.333,5.333,0,0,1,4225-170Zm-2.667-5.333a2.67,2.67,0,0,0,2.667,2.666H4225a2.669,2.669,0,0,0,2.667-2.666v-12.153c-.822.62-1.793,1.317-2.859,2.018-4.347,2.856-8.029,4.3-10.946,4.3s-6.595-1.448-10.933-4.3c-1.247-.821-2.363-1.638-3.262-2.33Zm14.2-8.5c4.691,0,11.362-5.055,13.805-7.045v-1.792a2.669,2.669,0,0,0-2.667-2.666h-22.667a2.67,2.67,0,0,0-2.667,2.666v1.45C4201.656-189.555,4208.87-183.83,4213.862-183.83Z" transform="translate(-4193.667 204)" fill="#fff"/>
</svg>
